# xmcd CD database file
#
# Track frame offsets:
#	150
#	29461
#	56609
#	100595
#	128524
#	156804
#	170303
#
# Disc length: 2919 seconds
#
# Revision: 0
# Processed by: cddbd v1.5.2PL0 Copyright (c) Steve Scherf et al.
# Submitted via: CDex 1.51
#
DISCID=4b0b6507
DTITLE=Dillendub - Dillendub
DYEAR=2012
DGENRE=Jazz
TTITLE0=Tapir cakewalk
TTITLE1=Ford Prefect
TTITLE2=Fruity loop
TTITLE3=Orange blue
TTITLE4=Tantrum
TTITLE5=V6
TTITLE6=A monument
EXTD=YEAR: 2012
EXTT0=
EXTT1=
EXTT2=
EXTT3=
EXTT4=
EXTT5=
EXTT6=
PLAYORDER=
